<?xml version="1.0" standalone="no"?><!DOCTYPE svg PUBLIC "-//W3C//DTD SVG 1.1//EN" "http://www.w3.org/Graphics/SVG/1.1/DTD/svg11.dtd"><svg t="1725185593610" class="icon" viewBox="0 0 1121 1024" version="1.1" xmlns="http://www.w3.org/2000/svg" p-id="17221" xmlns:xlink="http://www.w3.org/1999/xlink" width="218.9453125" height="200"><path d="M956.913203 282.632386V211.596439a70.255868 70.255868 0 0 0-67.964386-72.644861H479.651097V72.596105A70.255868 70.255868 0 0 0 411.686711-0.048755H69.573299a70.255868 70.255868 0 0 0-67.964386 72.64486v876.516308L122.862448 355.228491a70.255868 70.255868 0 0 1 67.964386-72.64486h766.086369z m-50.948912 725.961053H56.45822L172.299957 409.297719a70.255868 70.255868 0 0 1 67.964386-72.64486h785.393325a70.255868 70.255868 0 0 1 67.964386 72.64486l-121.253535 526.699615a70.255868 70.255868 0 0 1-66.404228 72.596105z" fill="#515151" p-id="17222"></path></svg>