<?xml version="1.0" standalone="no"?><!DOCTYPE svg PUBLIC "-//W3C//DTD SVG 1.1//EN" "http://www.w3.org/Graphics/SVG/1.1/DTD/svg11.dtd"><svg t="1724942244860" class="icon" viewBox="0 0 1024 1024" version="1.1" xmlns="http://www.w3.org/2000/svg" p-id="51587" xmlns:xlink="http://www.w3.org/1999/xlink" width="200" height="200"><path d="M512 693.931c35.346 0 64 28.67 64 64.035C576 793.33 547.346 822 512 822c-35.346 0-64-28.67-64-64.034 0-35.366 28.654-64.035 64-64.035z m0-234.793c35.346 0 64 28.67 64 64.034 0 35.366-28.654 64.035-64 64.035-35.346 0-64-28.67-64-64.035 0-35.365 28.654-64.034 64-64.034zM512 203c35.346 0 64 28.67 64 64.034 0 35.366-28.654 64.035-64 64.035-35.346 0-64-28.67-64-64.035C448 231.67 476.654 203 512 203z" p-id="51588"></path></svg>